<?xml version="1.0" encoding="utf-8"?>
<!-- Generator: Adobe Illustrator 26.0.2, SVG Export Plug-In . SVG Version: 6.00 Build 0)  -->
<svg version="1.1" id="Layer_1" xmlns="http://www.w3.org/2000/svg" xmlns:xlink="http://www.w3.org/1999/xlink" x="0px" y="0px"
	 viewBox="0 0 331.9 331.9" style="enable-background:new 0 0 331.9 331.9;" xml:space="preserve">
<style type="text/css">
	.st0{fill:#E5F3FF;}
	.st1{fill:none;stroke:#000000;stroke-width:1.5;stroke-miterlimit:10;}
	.st2{fill:none;stroke:#000000;stroke-width:0.25;stroke-miterlimit:10;}
	.st3{fill:#FFFFFF;}
	.st4{fill:url(#Oval_00000137126738844410050590000012481191953774890386_);}
	.st5{fill:#FDC134;}
	.st6{fill:url(#SVGID_1_);}
	.st7{fill:#2775CA;}
	.st8{fill:url(#SVGID_00000113342006884460825350000007481884223105085368_);}
</style>
<g>
	<g>
		<g>
			<circle class="st5" cx="165.9" cy="165.9" r="165.9"/>
		</g>
		<path class="st3" d="M268.2,135.7h-16.1c-12.1-30.5-41.8-52-76.5-52h-75v52h-27v21h27v18.7h-27v21h27v51.9h75
			c34.7,0,64.4-21.5,76.5-51.9h16.1v-21h-10.8c0.4-3.1,0.5-6.2,0.5-9.4v0c0-3.1-0.2-6.2-0.5-9.3h10.8V135.7z M121.6,104.7h54
			c22.8,0,42.7,12.5,53.2,31H121.6V104.7z M175.6,227.2h-54v-30.9h107.2C218.2,214.8,198.3,227.2,175.6,227.2z M236.9,165.9
			c0,3.2-0.2,6.3-0.7,9.4H121.6v-18.7h114.6C236.6,159.7,236.9,162.8,236.9,165.9z"/>
	</g>
	<g>
		<linearGradient id="SVGID_1_" gradientUnits="userSpaceOnUse" x1="192.1977" y1="187.4664" x2="284.213" y2="279.4816">
			<stop  offset="4.333454e-02" style="stop-color:#0974A9"/>
			<stop  offset="1" style="stop-color:#01A08F"/>
		</linearGradient>
		<circle class="st6" cx="241.2" cy="236.5" r="62"/>
		<g>
			<g>
				<path class="st3" d="M241.2,223.1c7.4,0,13.4,6,13.4,13.4c0,7.4-6,13.4-13.4,13.4c-7.4,0-13.4-6-13.4-13.4
					C227.8,229.1,233.8,223.1,241.2,223.1 M241.2,212.8c-13.1,0-23.7,10.6-23.7,23.7c0,13.1,10.6,23.7,23.7,23.7
					c13.1,0,23.7-10.6,23.7-23.7C264.8,223.4,254.3,212.8,241.2,212.8L241.2,212.8z"/>
			</g>
			<g>
				<path class="st3" d="M276.8,240.2c-2.1,0-3.7-1.7-3.7-3.7c0-17.6-14.3-31.9-31.9-31.9c-2.1,0-3.7-1.7-3.7-3.7
					c0-2.1,1.7-3.7,3.7-3.7c21.7,0,39.4,17.7,39.4,39.4C280.6,238.5,278.9,240.2,276.8,240.2z"/>
			</g>
			<g>
				<path class="st3" d="M241.2,275.8c-21.7,0-39.4-17.7-39.4-39.4c0-2.1,1.7-3.7,3.7-3.7c2.1,0,3.7,1.7,3.7,3.7
					c0,17.6,14.3,31.9,31.9,31.9c2.1,0,3.7,1.7,3.7,3.7C244.9,274.2,243.3,275.8,241.2,275.8z"/>
			</g>
			<g>
				<circle class="st3" cx="206.7" cy="226.5" r="3.7"/>
			</g>
			<g>
				<circle class="st3" cx="274.8" cy="245.6" r="3.7"/>
			</g>
		</g>
	</g>
</g>
</svg>
