<?xml version="1.0" encoding="utf-8"?>
<!-- Generator: Adobe Illustrator 26.0.2, SVG Export Plug-In . SVG Version: 6.00 Build 0)  -->
<svg version="1.1" id="Layer_1" xmlns="http://www.w3.org/2000/svg" xmlns:xlink="http://www.w3.org/1999/xlink" x="0px" y="0px"
	 viewBox="0 0 331.9 331.9" style="enable-background:new 0 0 331.9 331.9;" xml:space="preserve">
<style type="text/css">
	.st0{fill:#E5F3FF;}
	.st1{fill:none;stroke:#000000;stroke-width:1.5;stroke-miterlimit:10;}
	.st2{fill:none;stroke:#000000;stroke-width:0.25;stroke-miterlimit:10;}
	.st3{fill:#FFFFFF;}
	.st4{fill:url(#Oval_00000132064296118205300850000014953933700480141988_);}
	.st5{fill:#FDC134;}
	.st6{fill:url(#SVGID_1_);}
	.st7{fill:#2775CA;}
	.st8{fill:url(#SVGID_00000132059814662041690740000006828759503641246619_);}
</style>
<g id="ic_kxrp_00000117641914460700098870000001705332216893399480_">
	<g>
		<g id="ripple_icon_00000015355265972364818730000002700739481610642608_">
			<path id="Rectangle_00000018943200116047476330000002303471535436941455_" d="M165.9,0L165.9,0c91.6,0,165.9,74.3,165.9,165.9v0
				c0,91.6-74.3,165.9-165.9,165.9h0C74.3,331.9,0,257.6,0,165.9v0C0,74.3,74.3,0,165.9,0z"/>
			<path id="Shape_00000072252413128654426000000005858526007678082489_" class="st3" d="M165.9,171.5c12.7,0,25,4.8,34.3,13.4
				l52.6,49.3h-25.1l-39.9-37.6c-5.9-5.4-13.7-8.5-21.7-8.5c-8,0-15.8,3-21.7,8.5l-40.2,37.6H79l52.6-49.3
				C141,176.3,153.2,171.5,165.9,171.5z M104.4,98l39.7,37.1c5.9,5.4,13.7,8.5,21.7,8.5c8,0,15.8-3,21.7-8.5L227.5,98h25.1
				l-52.4,49.1c-9.4,8.5-21.6,13.2-34.3,13.2c-12.7,0-24.9-4.7-34.3-13.2L79.3,98H104.4z"/>
		</g>
		<g id="ORC_00000026874474159358797130000014931360927898907037_" transform="translate(42.000000, 42.000000)">
			
				<radialGradient id="Oval_00000094610211895894791520000006186371279362590609_" cx="930.9862" cy="432.1066" r="5.8667" gradientTransform="matrix(30 0 0 -30 -27672.9043 13219.8809)" gradientUnits="userSpaceOnUse">
				<stop  offset="0" style="stop-color:#00AE87"/>
				<stop  offset="1" style="stop-color:#0767B2"/>
			</radialGradient>
			
				<circle id="Oval_00000028310494788650919120000000695342942879358603_" style="fill:url(#Oval_00000094610211895894791520000006186371279362590609_);" cx="194.5" cy="194.5" r="62.2"/>
			<path id="Combined-Shape_00000021810888099052275720000013935684025003037617_" class="st3" d="M158.5,191.9
				c1.9,0,3.4,1.5,3.4,3.4l0,0l0,0h0c0,0,0,0,0,0c0,15.2,10.6,28,24.9,31.1c2.2,0.5,4.4,0.7,6.8,0.7l0,0l0,0c0,0,0.1,0,0.1,0
				c1.9,0,3.4,1.5,3.4,3.4c0,1.9-1.5,3.4-3.4,3.4l-0.1,0l-0.1,0v0h0.6c-0.2,0-0.4,0-0.6,0c-3,0-5.9-0.3-8.7-1
				c-16.9-3.9-29.5-19-29.8-37.1l0-0.5v0C155.1,193.5,156.6,191.9,158.5,191.9z M194.5,170.9c13.1,0,23.6,10.6,23.6,23.7
				c0,13.1-10.6,23.7-23.6,23.7c-13.1,0-23.6-10.6-23.6-23.7C170.8,181.5,181.4,170.9,194.5,170.9z M194.5,180.9
				c-7.5,0-13.6,6.1-13.6,13.7c0,7.6,6.1,13.7,13.6,13.7c7.5,0,13.6-6.1,13.6-13.7C208.1,187,202,180.9,194.5,180.9z M227.9,200.8
				c2.5-0.5,4.6,1.7,4.1,4.1c-0.3,1.4-1.4,2.5-2.7,2.8c-2.5,0.5-4.6-1.7-4.1-4.1C225.4,202.2,226.5,201,227.9,200.8z M195.4,155.1
				c21,0,38.1,17,38.4,38l0,0.6c0,0,0,0,0,0c0,1.9-1.5,3.4-3.4,3.4s-3.4-1.5-3.4-3.4l0,0l0,0c0-17.4-13.9-31.5-31.1-31.8l-0.5,0l0,0
				c0,0-0.1,0-0.1,0c-1.9,0-3.4-1.5-3.4-3.4c0-1.9,1.5-3.4,3.4-3.4H195.4L195.4,155.1L195.4,155.1L195.4,155.1z M159.6,181.5
				c2.5-0.5,4.6,1.7,4.1,4.1c-0.3,1.4-1.4,2.5-2.7,2.8c-2.5,0.5-4.6-1.7-4.1-4.1C157.2,182.9,158.3,181.7,159.6,181.5z"/>
		</g>
	</g>
</g>
</svg>
