<?xml version="1.0" encoding="utf-8"?>
<!-- Generator: Adobe Illustrator 26.0.2, SVG Export Plug-In . SVG Version: 6.00 Build 0)  -->
<svg version="1.1" id="Layer_1" xmlns="http://www.w3.org/2000/svg" xmlns:xlink="http://www.w3.org/1999/xlink" x="0px" y="0px"
	 viewBox="0 0 331.9 331.9" style="enable-background:new 0 0 331.9 331.9;" xml:space="preserve">
<style type="text/css">
	.st0{fill:#E5F3FF;}
	.st1{fill:none;stroke:#000000;stroke-width:1.5;stroke-miterlimit:10;}
	.st2{fill:none;stroke:#000000;stroke-width:0.25;stroke-miterlimit:10;}
	.st3{fill:#FFFFFF;}
	.st4{fill:url(#Oval_00000010274416943960024190000015678799929274041254_);}
	.st5{fill:#FDC134;}
	.st6{fill:url(#SVGID_1_);}
	.st7{fill:#2775CA;}
	.st8{fill:url(#SVGID_00000103975801779981371780000012364452205026390694_);}
</style>
<g>
	<g>
		<circle class="st7" cx="165.9" cy="165.9" r="165.9"/>
		<g>
			<g>
				<path class="st3" d="M141.3,245.6c0-0.9-0.6-1.6-1.4-1.9c-32.5-10.9-56.1-41.7-56.1-77.8S107.4,99,140,88.1
					c0.8-0.3,1.4-1,1.4-1.9V70.5c0-1.3-1.3-2.3-2.6-1.9c-42.6,11.9-73.9,50.9-73.9,97.3s31.3,85.5,73.9,97.3
					c1.3,0.4,2.6-0.6,2.6-1.9V245.6z"/>
				<path class="st3" d="M193.9,70.2v18c0,0.4,0.3,0.8,0.6,0.9c31.2,11.6,53.5,41.7,53.5,76.9s-22.3,65.3-53.5,76.9
					c-0.4,0.1-0.6,0.5-0.6,0.9v18c0,0.7,0.7,1.2,1.3,1c41.6-12.5,71.8-51.1,71.8-96.7s-30.3-84.2-71.8-96.7
					C194.5,69,193.9,69.5,193.9,70.2z"/>
			</g>
			<path class="st3" d="M200.2,180c-2.1-16.3-16.4-28.2-32.8-28.2h-9.1c-6.5,0-12.1-5.3-12.1-11.8c0-7.7,6.3-14,14-14h9
				c6.6,0,12,5.4,12,12c0,0,0,0,0,0h15.9c0,0,0,0,0,0c0-14.4-11-26.3-25-27.8c0,0,0,0,0,0V98.3c0,0,0,0,0,0h-15.9c0,0,0,0,0,0v12
				c0,0,0,0,0,0c-14.6,1.9-25.9,14.3-26.1,29.4c-0.2,15.5,12.8,28.1,28.3,28.1h9c8.1,0,15.2,5.6,16.6,13.5
				c1.8,9.9-5.8,18.5-15.3,18.5h-8.8c-8.8,0-15.9-7.1-15.9-15.9v-2.4c0,0,0,0,0,0h-15.9c0,0,0,0,0,0v2.4c0,16.3,12.3,29.7,28.1,31.6
				c0,0,0,0,0,0V227c0,1.1,0.9,2,2,2h12c1.1,0,2-0.9,2-2v-11.3c0,0,0,0,0,0C189.5,213.7,202.5,198,200.2,180z"/>
		</g>
	</g>
	<g>
		<linearGradient id="SVGID_1_" gradientUnits="userSpaceOnUse" x1="192.7556" y1="187.4664" x2="284.7709" y2="279.4816">
			<stop  offset="4.333454e-02" style="stop-color:#0974A9"/>
			<stop  offset="1" style="stop-color:#01A08F"/>
		</linearGradient>
		<circle class="st6" cx="241.7" cy="236.5" r="62"/>
		<g>
			<g>
				<path class="st3" d="M241.7,223.1c7.4,0,13.4,6,13.4,13.4c0,7.4-6,13.4-13.4,13.4s-13.4-6-13.4-13.4
					C228.4,229.1,234.4,223.1,241.7,223.1 M241.7,212.8c-13.1,0-23.7,10.6-23.7,23.7c0,13.1,10.6,23.7,23.7,23.7
					s23.7-10.6,23.7-23.7C265.4,223.4,254.8,212.8,241.7,212.8L241.7,212.8z"/>
			</g>
			<g>
				<path class="st3" d="M277.4,240.2c-2.1,0-3.7-1.7-3.7-3.7c0-17.6-14.3-31.9-31.9-31.9c-2.1,0-3.7-1.7-3.7-3.7
					c0-2.1,1.7-3.7,3.7-3.7c21.7,0,39.4,17.7,39.4,39.4C281.1,238.5,279.5,240.2,277.4,240.2z"/>
			</g>
			<g>
				<path class="st3" d="M241.7,275.8c-21.7,0-39.4-17.7-39.4-39.4c0-2.1,1.7-3.7,3.7-3.7s3.7,1.7,3.7,3.7
					c0,17.6,14.3,31.9,31.9,31.9c2.1,0,3.7,1.7,3.7,3.7C245.5,274.2,243.8,275.8,241.7,275.8z"/>
			</g>
			<g>
				<circle class="st3" cx="207.3" cy="226.5" r="3.7"/>
			</g>
			<g>
				<circle class="st3" cx="275.4" cy="245.6" r="3.7"/>
			</g>
		</g>
	</g>
</g>
</svg>
